<svg width="21" height="20" fill="none" xmlns="http://www.w3.org/2000/svg"><g clip-path="url(#a)"><path fill-rule="evenodd" clip-rule="evenodd" d="M3.973 1.438a.523.523 0 0 0-.376.158c-.935.957-1.582 1.92-1.923 2.862a2.42 2.42 0 0 0-.01 1.445c.61 2.464 2.147 5.526 3.917 7.805l.174.224c1.768 2.277 4.354 4.522 6.591 5.722.412.23.876.35 1.347.346.96 0 2.175-.544 3.611-1.617l.038-.036.03-.026.005-.005a.535.535 0 0 0 .037-.05l.026-.034a.487.487 0 0 0 .024-.05l.02-.044a.49.49 0 0 0 .013-.05.461.461 0 0 0 .012-.048.527.527 0 0 0 .003-.055c0-.015.003-.03.002-.045a.554.554 0 0 0-.007-.056l-.006-.044c-.004-.017-.011-.033-.017-.049-.006-.016-.01-.034-.017-.049l-.022-.039a.516.516 0 0 0-.031-.052l-.004-.006-.03-.033-.031-.036-2.323-2.186a.527.527 0 0 0-.72.767l1.856 1.746c-.998.676-1.863 1.044-2.47 1.044a1.716 1.716 0 0 1-.799-.192l-.04-.024c-2.12-1.134-4.581-3.272-6.27-5.447l-.173-.223c-1.69-2.177-3.155-5.09-3.73-7.425l-.01-.032a1.42 1.42 0 0 1-.008-.788A6.635 6.635 0 0 1 3.9 2.822l1.4 2.27a.525.525 0 1 0 .894-.553l-1.733-2.81a.519.519 0 0 0-.101-.117l-.02-.024a.523.523 0 0 0-.368-.15m13.81 2.29a.737.737 0 1 0-.002 1.474.737.737 0 0 0 .002-1.474ZM15.705 5.25a.737.737 0 1 0-.002 1.474.737.737 0 0 0 .002-1.474Zm-2.077 1.523a.737.737 0 1 0-.002 1.474.737.737 0 0 0 .002-1.474ZM11.55 8.295a.73.73 0 0 0-.714.566.734.734 0 1 0 .714-.566ZM5.993 0a1.58 1.58 0 0 0-.868.265l.58.878a.517.517 0 0 1 .283-.095.574.574 0 0 1 .456.29A30.641 30.641 0 0 1 8.56 4.828a.339.339 0 0 1-.095.442 3.24 3.24 0 0 1-.915.53 2.591 2.591 0 0 0-.122.054c-.787.39-1.627 1.15-1.155 2.558a.574.574 0 0 0 .021.055c.464 1.002 1.243 2.07 2.015 3.075l.012.016.02.027c.783.997 1.625 2.015 2.48 2.71a2.127 2.127 0 0 0 1.197.41c.69 0 1.232-.427 1.61-.87.114-.135.416-.51.543-.671l.014-.018a.58.58 0 0 1 .329-.242.16.16 0 0 1 .018-.001c.088.009.17.047.234.108.746.61 2.378 2.023 2.77 2.528a.519.519 0 0 0 .045.05c.503.501.346.801.295.9a.525.525 0 1 0 .93.487c.17-.324.46-1.174-.461-2.11-.556-.695-2.435-2.28-2.915-2.671a1.4 1.4 0 0 0-.896-.346c-.05 0-.098.003-.146.01a1.59 1.59 0 0 0-1.038.648 42.13 42.13 0 0 1-.52.644c-.327.384-.603.504-.833.504a1 1 0 0 1-.536-.195c-.762-.626-1.543-1.57-2.275-2.502l-.028-.038-.005-.006-.026-.032C8.405 9.94 7.68 8.946 7.26 8.049c-.11-.331-.245-.817.631-1.251l.067-.03c.459-.173.882-.429 1.25-.754a1.392 1.392 0 0 0 .297-1.647A31.385 31.385 0 0 0 7.295.721 1.587 1.587 0 0 0 5.993 0Z" fill="#F47E44"/></g><defs><clipPath id="a"><path fill="#fff" transform="translate(.271)" d="M0 0h20v20H0z"/></clipPath></defs></svg>