<svg width="101" height="67" fill="none" xmlns="http://www.w3.org/2000/svg"><mask id="a" style="mask-type:luminance" maskUnits="userSpaceOnUse" x="0" y="0" width="101" height="67"><path d="M0 0h100.5v67H0V0Z" fill="#fff"/></mask><g mask="url(#a)" stroke="#4F4F4F" stroke-miterlimit="10"><path d="M.001 39.915H98.24L86.957 21.447 65.781 24.42 30.28.798 0 39.916l.001-.001Z" stroke-width="1.44"/><path d="M2.96 39.519 29.927 5.613l34.81 33.906H2.961Z" stroke-width="1.44"/><path d="m74.621 39.519 11.941-17.37 11.06 17.37h-23Z" stroke-width="1.42"/><path d="M62.253 21.753v-7.219h5.486v9.234M30.93 21.06v13.297m49.488 4.766 6.49-8.747 5.796 8.747H80.419Zm-42.82-18.244h-13.33v13.866H37.6V20.877h-.002Z" stroke-width="1.44"/><path d="M7.477 49.124H2.93v-1.652h11.076v1.653h-4.57v13.38h-1.96v-13.38l.001-.001Zm7.13 5.955c0-1.272-.025-2.362-.09-3.37h1.71l.065 2.114h.09c.487-1.444 1.663-2.36 2.978-2.36.222 0 .378.024.55.064v1.851a3.127 3.127 0 0 0-.665-.066c-1.373 0-2.352 1.048-2.623 2.518-.042.265-.091.58-.091.919v5.748h-1.932v-7.425l.008.007Zm9.523-6.4c.025.668-.47 1.205-1.243 1.205-.69 0-1.175-.537-1.175-1.206a1.2 1.2 0 0 1 1.217-1.222c.707 0 1.2.537 1.2 1.222Zm-2.18 13.825V51.718h1.958v10.786H21.95Zm14.926-5.484c0 3.99-2.756 5.732-5.345 5.732-2.911 0-5.148-2.139-5.148-5.55 0-3.61 2.352-5.732 5.329-5.732s5.173 2.255 5.173 5.55h-.009Zm-8.527.108c0 2.362 1.356 4.145 3.263 4.145 1.909 0 3.266-1.759 3.266-4.187 0-1.825-.913-4.146-3.215-4.146-2.303 0-3.307 2.14-3.307 4.188h-.007Zm22.441 4.707c-.863.314-2.574.826-4.597.826-2.261 0-4.128-.578-5.592-1.982-1.29-1.247-2.088-3.254-2.088-5.6.024-4.485 3.083-7.756 8.1-7.756 1.735 0 3.084.38 3.733.694l-.469 1.586c-.797-.355-1.8-.644-3.306-.644-3.641 0-6.019 2.272-6.019 6.038 0 3.766 2.286 6.062 5.773 6.062 1.267 0 2.129-.182 2.574-.405V56.17h-3.044v-1.56h4.926v7.226h.01Zm2.895-6.756c0-1.272-.024-2.362-.09-3.37h1.71l.065 2.114h.092c.485-1.444 1.661-2.36 2.976-2.36.223 0 .378.024.551.064v1.851a3.127 3.127 0 0 0-.665-.066c-1.374 0-2.353 1.048-2.624 2.518-.041.265-.091.58-.091.919v5.748h-1.932v-7.425l.008.007Zm16.76 1.94c0 3.99-2.755 5.733-5.346 5.733-2.911 0-5.148-2.139-5.148-5.55 0-3.61 2.353-5.732 5.33-5.732 2.976 0 5.172 2.255 5.172 5.55h-.008Zm-8.528.109c0 2.362 1.357 4.145 3.264 4.145 1.909 0 3.266-1.759 3.266-4.187 0-1.825-.913-4.146-3.216-4.146-2.302 0-3.307 2.14-3.307 4.188h-.007ZM81.9 59.556c0 1.114.025 2.098.09 2.94h-1.735l-.107-1.759h-.04c-.51.867-1.645 2.007-3.553 2.007-1.686 0-3.709-.934-3.709-4.724v-6.312h1.956v5.973c0 2.048.627 3.437 2.403 3.437 1.307 0 2.22-.919 2.574-1.785.107-.29.18-.645.18-1V51.71h1.957v7.845l-.016.001Zm3.248-4.32c0-1.173-.03-2.346-.09-3.518h1.751l.091 1.85h.041c.798-1.314 2.064-2.098 3.816-2.098 2.599 0 4.547 2.204 4.547 5.484 0 3.882-2.351 5.798-4.884 5.798-1.423 0-2.665-.627-3.307-1.693h-.04v5.864H85.14V55.244l.008-.008Zm1.933 2.874c0 .29.04.553.09.801.354 1.364 1.53 2.296 2.929 2.296 2.064 0 3.264-1.693 3.264-4.17 0-2.164-1.135-4.014-3.2-4.014-1.332 0-2.573.958-2.952 2.428-.064.248-.131.537-.131.802v1.857Z" fill="#4F4F4F" stroke-width=".21"/></g></svg>