<svg width="20" height="20" fill="none" xmlns="http://www.w3.org/2000/svg"><g clip-path="url(#a)"><path fill-rule="evenodd" clip-rule="evenodd" d="M17.917 17.083H2.083A2.083 2.083 0 0 1 0 15V4.167c0-.326.129-.639.357-.871v-.01a.408.408 0 0 1 .181-.121c.204-.156.452-.243.709-.25h17.5c.256.007.504.094.708.25.07.023.133.065.18.12v.01c.231.232.362.545.365.872V15a2.084 2.084 0 0 1-2.083 2.083ZM1.583 3.75l7.095 5.807a2.203 2.203 0 0 0 2.639 0l7.1-5.807H1.583Zm17.584.46-6.755 5.53 3.299 3.298a.416.416 0 1 1-.59.59l-3.333-3.334a.336.336 0 0 1-.017-.042 3.014 3.014 0 0 1-3.542 0 .325.325 0 0 1-.018.042l-3.333 3.333a.416.416 0 1 1-.59-.589l3.3-3.299L.833 4.211V15a1.25 1.25 0 0 0 1.25 1.25h15.834a1.25 1.25 0 0 0 1.25-1.25V4.21Z" fill="#F47E44"/></g><defs><clipPath id="a"><path fill="#fff" d="M0 0h20v20H0z"/></clipPath></defs></svg>