<svg width="81" height="80" viewBox="0 0 81 80" fill="none" xmlns="http://www.w3.org/2000/svg">
<g filter="url(#filter0_d_46_50)">
<rect x="5.33002" y="5" width="70" height="70" rx="35" fill="white" fill-opacity="0.01" shape-rendering="crispEdges"/>
<path fill-rule="evenodd" clip-rule="evenodd" d="M29.6011 61V53.1376H58.3829V61H29.6011ZM56.6769 54.8764H55.8646V56.38H54.1577V54.8764H52.2391V56.38H50.5339V54.8764H48.6154V58.0088H46.9093V54.8764H44.9908V56.38H43.2856V54.8764H41.3662V56.38H39.661V54.8764H37.7382V58.0088H36.033V54.8764H34.1145V56.38H32.4093V54.8764H31.3072V59.2528H56.6752V54.8764H56.6769ZM54.6155 49.9624H27.7498V54.6244C27.7516 54.9665 27.618 55.2954 27.3781 55.5393C27.1383 55.7833 26.8117 55.9224 26.4696 55.9264H26.0437C25.0343 55.9151 24.0706 55.5036 23.3644 54.7822C22.6581 54.0609 22.2671 53.0887 22.2772 52.0792V52.0708L22.3234 28.8196H22.2814C22.2873 28.6592 22.3033 28.4992 22.3293 28.3408V28.282H22.3343C22.4491 27.3742 22.888 26.5385 23.5703 25.9288C24.2526 25.3191 25.1322 24.9764 26.0471 24.964H53.0111L53.0187 20.3104C53.0085 19.9743 53.1317 19.6478 53.3615 19.4022C53.5913 19.1567 53.909 19.0121 54.2451 19H54.6172C55.6277 19.0128 56.5918 19.426 57.2981 20.1488C58.0044 20.8716 58.3951 21.8451 58.3846 22.8556V46.1152C58.3944 47.1251 58.003 48.0975 57.2963 48.8189C56.5895 49.5403 55.6253 49.9515 54.6155 49.9624ZM23.9874 52.0792C23.9823 52.6315 24.1961 53.1635 24.582 53.5586C24.968 53.9537 25.4948 54.1799 26.0471 54.1876V49.9624C25.4935 49.9706 24.9657 50.1981 24.5796 50.5949C24.1934 50.9917 23.9805 51.5255 23.9874 52.0792ZM56.6769 22.8556C56.6803 22.3214 56.4799 21.8059 56.1166 21.4142C55.7533 21.0225 55.2543 20.784 54.7213 20.7472L54.6886 42.2588C55.399 42.2767 56.0892 42.4986 56.6769 42.898V22.8556ZM54.6155 43.9984L54.2367 44.0059C54.074 44.0091 53.9124 43.9787 53.762 43.9167C53.6115 43.8547 53.4755 43.7625 53.3622 43.6456C53.1179 43.3935 52.982 43.0558 52.9834 42.7048L53.0069 26.7112H26.0429C25.567 26.7151 25.107 26.8825 24.74 27.1853C24.3729 27.4881 24.1211 27.9079 24.0269 28.3744L23.9858 48.8536C24.5928 48.4446 25.3076 48.2253 26.0395 48.2236H54.6079C55.1682 48.2246 55.706 48.003 56.1029 47.6075C56.4998 47.212 56.7233 46.6751 56.7243 46.1148C56.7253 45.5545 56.5037 45.0167 56.1082 44.6198C55.7127 44.2229 55.1758 43.9994 54.6155 43.9984ZM30.9519 36.0856H32.6571V43.7212H38.0574V39.4288H36.2094V37.6816H43.0319V39.4288H39.7635V43.7212H46.9035V35.5732H42.5355V31.2136H39.057V29.4664H44.244V33.826H48.612V45.4684H30.9519V36.0856ZM32.6571 31.936H30.9519V29.4664H35.361V31.2136H32.6604V31.936H32.6571Z" fill="black"/>
</g>
<defs>
<filter id="filter0_d_46_50" x="0.330017" y="0" width="80" height="80" filterUnits="userSpaceOnUse" color-interpolation-filters="sRGB">
<feFlood flood-opacity="0" result="BackgroundImageFix"/>
<feColorMatrix in="SourceAlpha" type="matrix" values="0 0 0 0 0 0 0 0 0 0 0 0 0 0 0 0 0 0 127 0" result="hardAlpha"/>
<feMorphology radius="5" operator="dilate" in="SourceAlpha" result="effect1_dropShadow_46_50"/>
<feOffset/>
<feComposite in2="hardAlpha" operator="out"/>
<feColorMatrix type="matrix" values="0 0 0 0 0.929412 0 0 0 0 0.388235 0 0 0 0 0.105882 0 0 0 0.2 0"/>
<feBlend mode="normal" in2="BackgroundImageFix" result="effect1_dropShadow_46_50"/>
<feBlend mode="normal" in="SourceGraphic" in2="effect1_dropShadow_46_50" result="shape"/>
</filter>
</defs>
</svg>
