<svg width="81" height="80" viewBox="0 0 81 80" fill="none" xmlns="http://www.w3.org/2000/svg">
<g filter="url(#filter0_d_46_62)">
<rect x="5.98" y="5" width="70" height="70" rx="35" fill="white" fill-opacity="0.01" shape-rendering="crispEdges"/>
<path d="M27.2684 16.2503L27 16.4895V19.5894V22.6894L27.2684 22.9286C27.4294 23.0881 27.6548 23.1778 27.8588 23.1778C28.0627 23.1778 28.2881 23.0881 28.4491 22.9286L28.7175 22.6894V20.1376V17.5959H29.7373H30.7463L31.5621 19.0811C32.2491 20.347 32.4209 20.5862 32.6892 20.6759C32.9146 20.7457 33.1079 20.7457 33.3333 20.6759C33.6016 20.5862 33.7734 20.347 34.4604 19.0811L35.2762 17.5959H36.3926H37.509L37.7236 18.2637C37.8417 18.6425 38.2067 19.8187 38.5287 20.8852C39.1621 22.9485 39.3016 23.1778 39.8813 23.1778C40.4609 23.1778 40.6005 22.9485 41.2338 20.8852C41.5558 19.8187 41.9208 18.6425 42.0389 18.2637L42.2536 17.5959H43.2089H44.175V20.1376V22.6894L44.4434 22.9286C44.6044 23.0881 44.8298 23.1778 45.0338 23.1778C45.2377 23.1778 45.4631 23.0881 45.6241 22.9286L45.8925 22.6894V20.1376V17.5959H46.4614H47.0411L47.8247 19.4499C48.6405 21.3437 48.8123 21.583 49.3275 21.583C49.8428 21.583 50.0145 21.3437 50.8303 19.4499L51.6139 17.5959H52.1936H52.7625V26.3674V35.1389H45.3021H37.831L37.5734 35.3881C37.2191 35.7071 37.2191 36.1656 37.5734 36.4846L37.831 36.7338H45.8925H53.954L54.2117 36.4846L54.48 36.2454V26.3674V16.4895L54.2117 16.2503C53.9648 16.011 53.9111 16.0011 52.3653 16.0011C51.1524 16.0011 50.723 16.031 50.5512 16.1406C50.4331 16.2204 50.1326 16.7686 49.8642 17.3866C49.6066 17.9946 49.3704 18.493 49.3275 18.493C49.2846 18.493 49.0484 17.9946 48.7908 17.3866C48.5224 16.7686 48.2219 16.2204 48.1038 16.1406C47.9213 16.031 47.2665 16.0011 44.5722 16.0011C41.2875 16.0011 41.266 16.0011 41.0298 16.2204C40.8688 16.3699 40.6541 16.9281 40.375 17.865C40.1389 18.6525 39.9242 19.2904 39.8813 19.2904C39.8383 19.2904 39.6236 18.6525 39.3875 17.865C38.8078 15.8914 38.9796 16.0011 36.4785 16.0011C34.922 16.0011 34.4067 16.031 34.2457 16.1406C34.1276 16.2204 33.8163 16.6888 33.548 17.1872C33.2903 17.6856 33.0435 18.0943 33.0113 18.0943C32.979 18.0943 32.7322 17.6856 32.4745 17.1872C32.2062 16.6888 31.8949 16.2204 31.7768 16.1406C31.6158 16.031 31.1005 16.0011 29.544 16.0011C27.5475 16.0011 27.526 16.0011 27.2684 16.2503Z" fill="black"/>
<path d="M27.2684 25.0217L27 25.2609V32.4675C27 40.2921 27 40.2323 27.6011 41.3387C27.7514 41.6178 28.1271 42.0963 28.4277 42.3953C29.383 43.3223 30.4243 43.7708 31.9915 43.9104C32.5604 43.9602 33.2045 44.0798 33.4728 44.1895C34.1384 44.4586 34.8039 45.0467 35.1259 45.6447C35.5768 46.4721 35.5768 47.11 35.1045 49.2929C34.761 50.9176 34.718 51.2266 34.8361 51.4359C35.0937 51.8845 35.9095 51.9941 36.2423 51.6253C36.4463 51.3961 37.1977 47.7379 37.1977 46.9904C37.1977 44.9669 35.6197 43.0332 33.548 42.5149C33.2903 42.4451 32.6463 42.3554 32.1203 42.3156C31.0039 42.2159 30.3706 41.9667 29.7051 41.3387C28.9 40.6011 28.7819 40.2223 28.739 38.3484L28.696 36.7337H31.8841H35.0615L35.3191 36.4845C35.6734 36.1655 35.6734 35.707 35.3191 35.388L35.0615 35.1389H31.8841H28.7175V34.3414V33.544H39.6129H50.519L50.7766 33.2948L51.045 33.0556V30.3544V27.6532L50.7766 27.4139C50.6156 27.2544 50.3902 27.1647 50.1863 27.1647C49.9823 27.1647 49.7569 27.2544 49.5959 27.4139C49.3275 27.6532 49.3275 27.6532 49.3275 29.8062V31.9492H48.0394H46.7513V29.8062C46.7513 27.6532 46.7513 27.6532 46.4829 27.4139C46.1394 27.085 45.6456 27.085 45.3021 27.4139C45.0338 27.6532 45.0338 27.6532 45.0338 29.8062V31.9492H43.7456H42.4575V29.4075V26.8557L42.1891 26.6165C42.0281 26.457 41.8027 26.3673 41.5988 26.3673C41.3948 26.3673 41.1694 26.457 41.0084 26.6165L40.74 26.8557V29.4075V31.9492H39.4519H38.1638V29.4075V26.8557L37.8954 26.6165C37.7344 26.457 37.509 26.3673 37.305 26.3673C37.1011 26.3673 36.8756 26.457 36.7146 26.6165L36.4463 26.8557V29.4075V31.9492H34.7288H33.0113V29.8062C33.0113 27.6532 33.0113 27.6532 32.7429 27.4139C32.5819 27.2544 32.3565 27.1647 32.1525 27.1647C31.9485 27.1647 31.7231 27.2544 31.5621 27.4139C31.2938 27.6532 31.2938 27.6532 31.2938 29.8062V31.9492H30.0056H28.7175V28.61V25.2609L28.4491 25.0217C28.2881 24.8622 28.0627 24.7725 27.8588 24.7725C27.6548 24.7725 27.4294 24.8622 27.2684 25.0217Z" fill="black"/>
<path d="M53.1275 38.5578C52.9021 38.7472 52.8162 38.9167 52.741 39.435C52.5693 40.6311 51.8394 41.588 50.7552 42.0365C50.4868 42.1462 49.8428 42.2658 49.2846 42.3156C47.814 42.4452 47.0948 42.7044 46.1179 43.4121C45.0338 44.2095 44.2823 45.6747 44.2823 46.9905C44.2823 47.4191 44.6151 49.1933 45.2484 52.1338C45.7744 54.5958 46.2145 56.8684 46.2145 57.1674C46.2038 60.4268 42.8976 62.849 39.4626 62.1014C37.0581 61.5731 35.2655 59.46 35.2655 57.1674C35.2655 56.8883 35.3835 56.0909 35.5338 55.3732C35.8237 53.9877 35.8129 53.8382 35.3513 53.5392C35.0078 53.3199 34.6536 53.3398 34.3638 53.609C33.9881 53.9578 33.4943 56.4198 33.5802 57.5661C33.6983 59.2606 34.3853 60.6461 35.6841 61.8622C37.144 63.2178 38.6575 63.7959 40.74 63.7959C42.8332 63.7959 44.2716 63.2477 45.7422 61.902C47.1162 60.6362 47.7818 59.2806 47.8998 57.5163C47.9535 56.679 47.8998 56.3401 46.9659 52.0341C45.8603 46.9207 45.8281 46.6017 46.3541 45.6448C46.6761 45.0468 47.3416 44.4587 48.0072 44.1896C48.2755 44.0799 48.9196 43.9503 49.4671 43.9105C50.0145 43.8606 50.7337 43.731 51.0772 43.6214C52.8806 43.0433 54.2653 41.3787 54.4478 39.5646C54.5122 38.9665 54.4907 38.9266 54.1794 38.6376C53.793 38.2688 53.5139 38.2488 53.1275 38.5578Z" fill="black"/>
<path d="M39.6666 54.4363C37.2299 55.2536 36.5214 58.0445 38.3248 59.7091C39.0332 60.367 39.6666 60.6062 40.74 60.5963C41.5129 60.5963 41.7383 60.5564 42.1999 60.3371C43.005 59.9484 43.3485 59.6394 43.7564 58.9416C44.0784 58.3735 44.1106 58.2339 44.1213 57.4664C44.1213 56.4697 43.8637 55.8816 43.1552 55.2237C42.275 54.4064 40.7722 54.0675 39.6666 54.4363ZM41.4163 56.0111C42.5219 56.4398 42.7903 57.7754 41.9315 58.5728C41.2338 59.2207 40.2462 59.2207 39.5485 58.5728C38.2174 57.3468 39.688 55.3333 41.4163 56.0111Z" fill="black"/>
</g>
<defs>
<filter id="filter0_d_46_62" x="0.980003" y="0" width="80" height="80" filterUnits="userSpaceOnUse" color-interpolation-filters="sRGB">
<feFlood flood-opacity="0" result="BackgroundImageFix"/>
<feColorMatrix in="SourceAlpha" type="matrix" values="0 0 0 0 0 0 0 0 0 0 0 0 0 0 0 0 0 0 127 0" result="hardAlpha"/>
<feMorphology radius="5" operator="dilate" in="SourceAlpha" result="effect1_dropShadow_46_62"/>
<feOffset/>
<feComposite in2="hardAlpha" operator="out"/>
<feColorMatrix type="matrix" values="0 0 0 0 0.929412 0 0 0 0 0.388235 0 0 0 0 0.105882 0 0 0 0.2 0"/>
<feBlend mode="normal" in2="BackgroundImageFix" result="effect1_dropShadow_46_62"/>
<feBlend mode="normal" in="SourceGraphic" in2="effect1_dropShadow_46_62" result="shape"/>
</filter>
</defs>
</svg>
