<svg width="81" height="80" viewBox="0 0 81 80" fill="none" xmlns="http://www.w3.org/2000/svg">
<g filter="url(#filter0_d_46_86)">
<rect x="5.32999" y="5" width="70" height="70" rx="35" fill="white" fill-opacity="0.01" shape-rendering="crispEdges"/>
<path fill-rule="evenodd" clip-rule="evenodd" d="M56.2766 50.2388H61.33V56.38H19.33V50.2388H24.3843V47.2492H19.33V41.1088H24.3843V38.1184H19.33V31.978H41.1146V36.5392H46.168V38.5384H49.4549V36.43H48.4973C48.3372 36.4308 48.1787 36.3976 48.0324 36.3324C47.8861 36.2672 47.7554 36.1716 47.6489 36.052C47.5426 35.9345 47.4619 35.7961 47.412 35.6457C47.3621 35.4953 47.3441 35.3362 47.3591 35.1784C47.4187 34.5316 47.5548 33.2212 47.79 31.7092C47.9226 30.9307 47.8767 30.1322 47.6556 29.374C47.4562 28.5936 47.3435 27.7935 47.3196 26.9884C47.2431 26.2003 47.4714 25.4128 47.9576 24.7879C48.4438 24.1629 49.151 23.748 49.9337 23.6284L50.0354 23.62L50.5393 23.6284C51.3221 23.748 52.0292 24.1629 52.5154 24.7879C53.0016 25.4128 53.23 26.2003 53.1534 26.9884C53.1295 27.7935 53.0169 28.5936 52.8174 29.374C52.5962 30.1321 52.5505 30.9308 52.6838 31.7092C52.9182 33.2212 53.0543 34.5316 53.1139 35.1784C53.129 35.3362 53.111 35.4953 53.0611 35.6457C53.0112 35.7961 52.9305 35.9345 52.8242 36.052C52.7177 36.1716 52.587 36.2672 52.4407 36.3324C52.2944 36.3976 52.1359 36.4308 51.9758 36.43H51.0181V38.5384H55.959C56.2658 38.523 56.5713 38.5867 56.8464 38.7233C57.1214 38.86 57.3568 39.065 57.5298 39.3188C57.684 39.588 57.767 39.8921 57.7712 40.2023C57.7753 40.5125 57.7003 40.8187 57.5534 41.092L55.3584 45.67H56.2715V50.2388H56.2766ZM51.2945 29.0128C51.4688 28.3371 51.5669 27.644 51.5868 26.9464C51.6492 26.5547 51.5577 26.154 51.3312 25.8283C51.1048 25.5026 50.7611 25.2772 50.3722 25.1992H50.1025C49.7144 25.2783 49.3717 25.5041 49.1459 25.8296C48.9201 26.155 48.8286 26.5551 48.8904 26.9464C48.9107 27.6439 49.0088 28.337 49.1827 29.0128C49.4492 29.9696 49.5025 30.9731 49.339 31.9528C49.1575 33.1204 49.0374 34.162 48.966 34.8508H51.5112C51.4398 34.162 51.3197 33.1204 51.1383 31.9528C50.9743 30.9732 51.0276 29.9695 51.2945 29.0128ZM41.1146 54.8008H49.654V53.8264C49.3924 53.6258 49.1851 53.363 49.0509 53.062L48.4528 51.8188H41.1137V54.8008H41.1146ZM47.6993 50.2388L46.2713 47.2492H46.1705V50.2388H47.6993ZM41.1146 50.2388H44.6005V47.2492H36.0594V50.2388H41.1146ZM45.5136 45.67L44.0856 42.688H41.1171V45.67H45.5136ZM39.5454 45.67V42.688H31.006V45.67H39.5454ZM31.006 54.8008H39.5454V51.8188H31.006V54.8008ZM31.006 50.2388H34.492V47.2492H25.9517V50.2388H31.006ZM20.8974 51.8188V54.8008H29.4377V51.8188H20.8974ZM20.8974 42.688V45.67H29.4377V42.688H20.8974ZM29.4377 33.5572H20.8974V36.5392H29.4377V33.5572ZM29.4377 38.1184H25.9517V41.1088H34.492V38.1184H29.4377ZM39.5454 33.5572H31.006V36.5392H39.5454V33.5572ZM44.6005 38.1184H36.0594V41.1088H43.3288L43.3196 41.092C43.172 40.8191 43.0966 40.5131 43.1006 40.2029C43.1046 39.8927 43.1877 39.5886 43.3422 39.3196C43.4835 39.1092 43.6699 38.933 43.8879 38.8037C44.1058 38.6744 44.3499 38.5952 44.6022 38.572V38.1184H44.6005ZM56.1447 40.404C56.1892 40.3303 56.2102 40.2448 56.2051 40.1588C56.1293 40.1246 56.0461 40.1105 55.9632 40.1176H44.9138C44.8282 40.1067 44.7414 40.1244 44.6669 40.168C44.6688 40.2509 44.6913 40.332 44.7324 40.404L50.4385 52.3228L56.1447 40.404ZM53.182 50.2388H54.7125V47.2492H54.61L53.182 50.2388ZM52.426 51.8188L51.8288 53.062C51.6945 53.3628 51.4875 53.6255 51.2265 53.8264V54.8008H59.7667V51.8188H52.426Z" fill="black"/>
</g>
<defs>
<filter id="filter0_d_46_86" x="0.329987" y="0" width="80" height="80" filterUnits="userSpaceOnUse" color-interpolation-filters="sRGB">
<feFlood flood-opacity="0" result="BackgroundImageFix"/>
<feColorMatrix in="SourceAlpha" type="matrix" values="0 0 0 0 0 0 0 0 0 0 0 0 0 0 0 0 0 0 127 0" result="hardAlpha"/>
<feMorphology radius="5" operator="dilate" in="SourceAlpha" result="effect1_dropShadow_46_86"/>
<feOffset/>
<feComposite in2="hardAlpha" operator="out"/>
<feColorMatrix type="matrix" values="0 0 0 0 0.929412 0 0 0 0 0.388235 0 0 0 0 0.105882 0 0 0 0.2 0"/>
<feBlend mode="normal" in2="BackgroundImageFix" result="effect1_dropShadow_46_86"/>
<feBlend mode="normal" in="SourceGraphic" in2="effect1_dropShadow_46_86" result="shape"/>
</filter>
</defs>
</svg>
