<svg width="81" height="80" viewBox="0 0 81 80" fill="none" xmlns="http://www.w3.org/2000/svg">
<g filter="url(#filter0_d_46_98)">
<rect x="5.97" y="5" width="70" height="70" rx="35" fill="white" fill-opacity="0.01" shape-rendering="crispEdges"/>
<path fill-rule="evenodd" clip-rule="evenodd" d="M60.2841 29.2816V27.736H61.97V29.2816H60.2841ZM44.1746 36.85V45.3844H44.2712C44.4244 45.3843 44.5762 45.4144 44.7178 45.4729C44.8594 45.5314 44.9881 45.6173 45.0965 45.7256C45.2049 45.8338 45.2909 45.9624 45.3496 46.1039C45.4084 46.2454 45.4387 46.3971 45.4388 46.5503V49.7524C45.4373 50.0608 45.3135 50.356 45.0946 50.5733C44.8757 50.7906 44.5796 50.9123 44.2712 50.9116H42.5206C42.2124 50.9121 41.9165 50.7903 41.6978 50.573C41.4791 50.3558 41.3554 50.0607 41.3539 49.7524V46.552C41.3537 46.3988 41.3839 46.2471 41.4424 46.1055C41.5009 45.9639 41.5867 45.8352 41.695 45.7268C41.8033 45.6184 41.9319 45.5323 42.0734 45.4736C42.2149 45.4148 42.3666 45.3845 42.5198 45.3844H42.6181V36.85H44.1746ZM42.9096 49.366H43.8823V46.9384H42.9096V49.366ZM49.0416 36.85H50.5981V40.3361H49.034V36.85H49.0416ZM50.5981 45.3844H50.6955C50.8487 45.3844 51.0005 45.4146 51.142 45.4733C51.2836 45.5319 51.4122 45.6178 51.5206 45.7262C51.6289 45.8345 51.7148 45.9631 51.7735 46.1047C51.8321 46.2463 51.8623 46.398 51.8623 46.5512V49.7516C51.8607 50.0599 51.737 50.3549 51.5183 50.5722C51.2997 50.7895 51.0038 50.9112 50.6955 50.9108H48.9441C48.6357 50.9115 48.3396 50.7898 48.1207 50.5725C47.9018 50.3552 47.7781 50.06 47.7765 49.7516V46.552C47.7765 46.2425 47.8994 45.9457 48.1182 45.7267C48.337 45.5078 48.6338 45.3846 48.9433 45.3844H49.034V41.764H50.5905V45.3844H50.5981ZM50.3058 46.9384H49.3339V49.366H50.3058V46.9384ZM56.3983 30.8188L54.2714 32.5157H46.3191C46.1948 32.7041 46.0257 32.8588 45.8269 32.9658C45.6281 33.0729 45.4059 33.1289 45.1801 33.1288H43.4009C43.3461 33.4375 43.1851 33.7172 42.9458 33.9197C42.7065 34.1221 42.404 34.2346 42.0905 34.2376H37.8905L35.8804 38.53H31.4284V48.1388H32.1004V49.6853H27.0865V51.3064C27.0882 51.5633 27.1915 51.809 27.3737 51.9899C27.556 52.1709 27.8024 52.2724 28.0592 52.2724H51.47C52.1391 52.2726 52.7809 52.5379 53.2549 53.0102C53.729 53.4825 53.9966 54.1233 53.9992 54.7924V57.22H52.4427V54.7924C52.441 54.5356 52.3377 54.2899 52.1555 54.1089C51.9732 53.928 51.7268 53.8264 51.47 53.8264H28.0567C27.3877 53.826 26.7461 53.5606 26.2723 53.0884C25.7985 52.6161 25.531 51.9754 25.5283 51.3064V49.6853H21.6718V43.2257L23.7122 41.6716V34.2376H22.4992C21.83 34.2376 21.1881 33.9724 20.7141 33.5001C20.24 33.0278 19.9724 32.3868 19.97 31.7176V25.3C19.9724 24.6308 20.24 23.9899 20.7141 23.5175C21.1881 23.0452 21.83 22.78 22.4992 22.78H42.0863C42.3986 22.7827 42.7002 22.8939 42.9393 23.0947C43.1784 23.2955 43.3402 23.5733 43.3967 23.8804H45.1759C45.4024 23.8818 45.625 23.9392 45.8237 24.0477C46.0225 24.1562 46.1913 24.3123 46.3149 24.502H54.2672L56.3941 26.1988V27.736H58.9871V29.2816H56.3941V30.8188H56.3983ZM31.4335 36.976H34.8934L36.177 34.2376H33.5083V35.606H31.9517V34.2376H31.4335V36.976ZM23.2325 43.99V48.1388H29.877V34.2376H25.2729V42.4444L23.2325 43.99ZM41.8957 24.334H22.4992C22.2424 24.334 21.996 24.4356 21.8138 24.6166C21.6316 24.7975 21.5283 25.0432 21.5265 25.3V31.7176C21.5283 31.9745 21.6316 32.2201 21.8138 32.4011C21.996 32.5821 22.2424 32.6836 22.4992 32.6836H41.894V24.334H41.8957ZM54.8417 26.938L53.7254 26.0476H53.0912V29.6764H51.5347V26.0476H44.9827V25.4344H43.448V31.5832H44.981V30.97H48.4829V27.2824H50.042V30.97H53.7246L54.8409 30.0796L54.8417 26.938ZM28.8396 26.7953H23.7819V25.2412H28.8396V26.7953ZM28.8396 29.3153H23.7819V27.7612H28.8396V29.3153ZM28.8396 31.8353H23.7819V30.2896H28.8396V31.8353ZM33.0538 28.0553H31.7099V26.5012H33.0538V28.0553ZM36.1022 28.0553H34.7582V26.5012H36.1022V28.0553ZM39.1497 28.0553H37.8057V26.5012H39.1497V28.0553ZM55.5297 36.85H57.0854V38.9164H55.5297V36.85ZM57.0854 41.764H55.5297V39.6892H57.0854V41.764ZM55.4323 45.3844H55.5297V42.7972H57.0854V45.3844H57.182C57.4914 45.3844 57.7882 45.5074 58.007 45.7262C58.2258 45.945 58.3488 46.2418 58.3488 46.5512V49.7516C58.3472 50.0599 58.2236 50.3549 58.0049 50.5722C57.7862 50.7895 57.4903 50.9112 57.182 50.9108H55.4314C55.123 50.9115 54.8269 50.7898 54.6081 50.5725C54.3892 50.3552 54.2654 50.06 54.2638 49.7516V46.552C54.2638 46.2437 54.3858 45.9478 54.6031 45.7291C54.8205 45.5103 55.1155 45.3864 55.4239 45.3844H55.4323ZM55.8212 49.366H56.7939V46.9384H55.8212V49.366Z" fill="black"/>
</g>
<defs>
<filter id="filter0_d_46_98" x="0.970001" y="0" width="80" height="80" filterUnits="userSpaceOnUse" color-interpolation-filters="sRGB">
<feFlood flood-opacity="0" result="BackgroundImageFix"/>
<feColorMatrix in="SourceAlpha" type="matrix" values="0 0 0 0 0 0 0 0 0 0 0 0 0 0 0 0 0 0 127 0" result="hardAlpha"/>
<feMorphology radius="5" operator="dilate" in="SourceAlpha" result="effect1_dropShadow_46_98"/>
<feOffset/>
<feComposite in2="hardAlpha" operator="out"/>
<feColorMatrix type="matrix" values="0 0 0 0 0.929412 0 0 0 0 0.388235 0 0 0 0 0.105882 0 0 0 0.2 0"/>
<feBlend mode="normal" in2="BackgroundImageFix" result="effect1_dropShadow_46_98"/>
<feBlend mode="normal" in="SourceGraphic" in2="effect1_dropShadow_46_98" result="shape"/>
</filter>
</defs>
</svg>
