<svg width="81" height="80" viewBox="0 0 81 80" fill="none" xmlns="http://www.w3.org/2000/svg">
<g filter="url(#filter0_d_46_110)">
<rect x="5.64001" y="5" width="70" height="70" rx="35" fill="white" fill-opacity="0.01" shape-rendering="crispEdges"/>
<path d="M32.1406 19.5496C31.8535 19.648 31.509 19.9352 30.5656 20.8867L29.3516 22.0844V22.4863C29.3516 22.8801 29.3598 22.8883 30.2129 23.7578C30.6887 24.2336 31.0742 24.6602 31.0742 24.7094C31.0742 24.7504 30.7379 25.1195 30.3277 25.5215C29.9176 25.9316 29.5402 26.3336 29.491 26.4238C29.3269 26.7355 29.2777 27.1539 29.368 27.5723C29.45 27.9496 29.5484 28.0809 30.6477 29.1883C31.9848 30.55 32.2801 30.7387 33.0266 30.7387C33.7238 30.7469 34.175 30.5172 34.9215 29.7953L35.5449 29.1801L36.6769 30.2957L37.809 31.4195L34.6262 34.6023L31.4434 37.7852V38.1543C31.4434 38.5152 31.4598 38.5398 32.5098 39.598C33.1004 40.1887 33.691 40.7219 33.8387 40.7875C34.1832 40.9352 34.7 40.9352 35.0773 40.7793C35.2824 40.6891 36.3406 39.6883 38.3176 37.7195L41.2543 34.791L44.2238 37.8016C47.2754 40.8941 47.4805 41.0664 48.0957 41.0664C48.6043 41.0664 48.8832 40.8695 50.0398 39.7047C51.2949 38.4332 51.4344 38.1789 51.2047 37.6293C51.1227 37.4324 50.0398 36.284 47.9891 34.2414L44.8965 31.1406L45.9547 30.0824L47.0047 29.0324L47.9644 28.9832C49.4656 28.9176 50.4828 28.4664 51.4672 27.4246C52.066 26.793 52.4269 26.1285 52.6156 25.341C52.8699 24.2336 52.6648 23.6102 51.9676 23.4215C51.3523 23.2574 50.8191 23.5117 49.9824 24.3813C49.3836 25.0047 49.0965 25.0949 48.5141 24.8324C48.2023 24.693 48.1039 24.5945 47.9562 24.2828C47.6445 23.5691 47.8906 22.8391 48.6699 22.1664C49.2359 21.6824 49.4492 21.3543 49.4492 20.9688C49.4492 20.3289 48.998 20.0992 47.8988 20.173C45.6676 20.3207 43.8957 21.7645 43.4117 23.807C43.2969 24.291 43.2969 24.4715 43.3789 25.0621L43.4773 25.743L42.4684 26.7602L41.4512 27.7773L40.3273 26.6535L39.2035 25.5297L39.5973 25.1113C39.8187 24.8816 40.073 24.5371 40.1715 24.3484C40.475 23.7578 40.8934 22.5027 40.9508 22.0188C41 21.6168 40.9836 21.502 40.7949 21.1246C40.516 20.5832 39.8516 19.9352 39.3184 19.6891C38.7359 19.4102 38.2519 19.4348 37.1363 19.7875C35.9961 20.1484 35.4793 20.4027 35.0691 20.7965L34.7574 21.0918L34.0273 20.3371C33.4941 19.7875 33.2152 19.5578 32.9855 19.5004C32.6082 19.3938 32.6 19.3938 32.1406 19.5496ZM38.498 20.1813C38.8754 20.3371 39.5809 21.0098 39.7777 21.3953C39.8598 21.5594 39.9336 21.8301 39.9336 21.9777C39.9336 22.3223 39.4988 23.8234 39.2609 24.2828C39.0559 24.693 38.5719 25.1605 38.4242 25.1031C38.3586 25.0785 38.2848 25.0949 38.2519 25.1441C38.2191 25.2016 38.2602 25.2098 38.3504 25.177C38.4324 25.1523 37.6367 26.0055 36.5785 27.0883C33.4039 30.3449 33.4613 30.2875 32.9527 30.025C32.5836 29.8445 30.8691 28.1629 30.5738 27.7035C30.3195 27.318 30.2785 26.9652 30.4262 26.5715C30.5328 26.268 31.9766 24.816 32.5754 24.4059C32.8297 24.2254 33.043 24.0613 33.043 24.0285C33.043 24.0039 32.9855 24.0285 32.9199 24.0859C32.8461 24.1434 32.7723 24.1762 32.7559 24.1516C32.6738 24.0777 35.9715 20.8949 36.2996 20.7309C36.6277 20.5668 38.0141 20.0746 38.1535 20.0664C38.1863 20.0664 38.3422 20.1156 38.498 20.1813ZM32.7805 20.4109C32.7969 20.493 32.6656 20.616 32.4195 20.7555C31.8699 21.0672 31.8125 21.018 32.2227 20.5996C32.5918 20.2223 32.7312 20.1813 32.7805 20.4109ZM48.1285 20.7309C48.4238 20.8375 48.5305 21.1082 48.3828 21.3953C48.3254 21.4938 48.0219 21.8465 47.7184 22.1664C47.4066 22.4945 47.0785 22.9211 46.9883 23.1098C46.8078 23.5035 46.775 24.1105 46.9144 24.4715C47.2098 25.2672 48.2844 25.702 49.2934 25.4395C49.884 25.2918 50.1137 25.1359 50.8684 24.4223C51.4016 23.9055 51.4344 23.8891 51.5492 24.0367C51.7297 24.291 51.6969 25.3492 51.4918 25.9563C51.1637 26.9406 50.4828 27.7527 49.6543 28.1711C49.1211 28.4336 48.4648 28.532 47.6609 28.4746C47.0867 28.4254 46.8816 28.4418 46.693 28.5402C46.5617 28.6059 43.8547 31.2719 40.6719 34.4629C37.4891 37.6457 34.823 40.2953 34.741 40.3363C34.618 40.4102 34.4293 40.2543 33.5352 39.3684C32.5262 38.3676 32.4687 38.2938 32.4687 37.982C32.4687 37.6703 32.5508 37.5801 38.4324 31.6984C41.7137 28.4254 44.4125 25.6938 44.4371 25.6363C44.4535 25.5871 44.4207 25.2918 44.3715 24.9965C44.0762 23.3395 45.1508 21.4117 46.7176 20.8047C47.1687 20.6242 47.743 20.5996 48.1285 20.7309ZM33.5269 21.1656C33.6008 21.2559 33.5352 21.3297 33.1906 21.5266C32.9527 21.6578 32.7394 21.7563 32.723 21.7398C32.6738 21.6988 33.2973 21.0508 33.3793 21.0508C33.4121 21.0508 33.4777 21.1 33.5269 21.1656ZM31.3203 22.1828C31.3203 22.2156 31.1727 22.3961 30.9922 22.5684C30.6887 22.8637 30.6477 22.8801 30.5328 22.757C30.418 22.6422 30.4426 22.6094 30.8035 22.3797C31.2219 22.1172 31.3203 22.0762 31.3203 22.1828ZM31.4434 23.3477C31.3613 23.4379 31.2629 23.4871 31.2137 23.4543C31.1727 23.4297 31.2219 23.3559 31.3285 23.2984C31.5992 23.1508 31.6156 23.159 31.4434 23.3477ZM39.7531 27.3918C39.8269 27.4738 39.7449 27.5559 39.4004 27.7609C39.1543 27.9004 38.9492 27.9906 38.9492 27.9578C38.9492 27.8922 39.5398 27.2852 39.6137 27.2852C39.6465 27.2852 39.7039 27.3344 39.7531 27.3918ZM37.2266 28.7207C36.8984 29.057 36.8492 29.0816 36.7344 28.9586C36.6687 28.8848 36.6441 28.8109 36.6934 28.7945C36.7426 28.7781 36.923 28.6715 37.1035 28.5566C37.5957 28.2613 37.6285 28.3105 37.2266 28.7207ZM37.5957 29.582C37.5711 29.623 37.4973 29.6641 37.448 29.6641C37.3906 29.6641 37.3988 29.6313 37.4727 29.582C37.6285 29.4836 37.6613 29.4836 37.5957 29.582ZM38.375 30.1152C38.1781 30.3285 38.0469 30.3777 38.0469 30.2383C38.0469 30.1727 38.416 29.9266 38.5309 29.9102C38.5555 29.9102 38.4816 30.0004 38.375 30.1152ZM44.9621 32.6992C44.798 32.8387 43.9531 33.2816 43.9531 33.2242C43.9531 33.1832 44.1254 32.9781 44.3387 32.7648C44.6996 32.3957 44.7324 32.3793 44.8719 32.5105C44.9539 32.5844 44.9949 32.6746 44.9621 32.6992ZM45.7578 33.4047C45.848 33.5031 45.848 33.5441 45.7496 33.6344C45.5691 33.7984 44.6914 34.2742 44.6914 34.2086C44.6914 34.1102 45.4625 33.2898 45.5609 33.2816C45.6102 33.2734 45.7004 33.3309 45.7578 33.4047ZM42.4766 33.8066C42.2387 34.0527 42.0008 34.225 41.9598 34.2004C41.8613 34.143 42.6652 33.3555 42.8129 33.3555C42.8785 33.3555 42.7227 33.5605 42.4766 33.8066ZM43.4609 34.5859C43.223 34.8566 42.9934 35.0781 42.9359 35.0781C42.8293 35.0781 42.6406 34.9141 42.6406 34.8156C42.6406 34.75 43.6988 34.102 43.8137 34.0938C43.8547 34.0938 43.6988 34.3152 43.4609 34.5859ZM46.5371 34.1758C46.5617 34.2168 46.4715 34.307 46.3402 34.3809C45.9957 34.5531 45.9465 34.5367 46.168 34.2988C46.373 34.0773 46.4551 34.0527 46.5371 34.1758ZM43.8711 35.6113C43.6578 35.841 43.543 35.8738 43.543 35.7098C43.543 35.6441 43.625 35.5539 43.7316 35.5047C44.0269 35.357 44.0762 35.3898 43.8711 35.6113ZM48.4484 36.0625C48.4566 36.1445 48.2844 36.284 47.9727 36.4563C47.7019 36.6039 47.4805 36.7023 47.4805 36.6695C47.4805 36.6285 47.6363 36.4398 47.825 36.2512C48.1695 35.8984 48.3992 35.8246 48.4484 36.0625ZM49.2441 36.8008C49.2687 36.8418 49.1375 36.973 48.957 37.0879C48.4074 37.4324 48.3172 37.4242 48.6699 37.0551C48.9898 36.7188 49.1457 36.6449 49.2441 36.8008ZM45.9465 37.3012C45.5609 37.6949 45.3477 37.7688 45.3477 37.5063C45.3477 37.416 46.1187 36.9074 46.291 36.891C46.332 36.8828 46.1844 37.0715 45.9465 37.3012ZM50.1875 37.8754C50.1875 37.941 48.8668 38.7039 48.8176 38.6547C48.8012 38.6383 49.0144 38.3594 49.2934 38.0395L49.8019 37.457L49.9988 37.6375C50.0973 37.7359 50.1875 37.8426 50.1875 37.8754ZM46.6848 38.1297C46.3894 38.425 46.3238 38.4578 46.209 38.3594C46.0941 38.2609 46.1269 38.2281 46.4715 38.023C47.0211 37.6949 47.0867 37.7277 46.6848 38.1297ZM48.2187 38.3348C48.1777 38.4168 47.9398 38.7039 47.6937 38.9746L47.2508 39.4586L47.0785 39.2617C46.9883 39.1469 46.9144 39.0402 46.9062 39.0156C46.9062 38.9664 48.1367 38.2117 48.2434 38.2035C48.2762 38.1953 48.268 38.2609 48.2187 38.3348Z" fill="black"/>
<path d="M33.3137 25.3656C33.1168 25.4804 32.9609 25.6117 32.9609 25.6609C32.9609 25.7019 33.1004 25.6363 33.2727 25.5132C33.8469 25.0867 33.8633 25.0375 33.3137 25.3656Z" fill="black"/>
<path d="M39.2773 31.5918C38.941 31.7969 38.7031 31.9609 38.7605 31.9609C38.8425 31.9609 39.7941 31.3867 39.9254 31.2637C40.0238 31.1652 39.8433 31.2555 39.2773 31.5918Z" fill="black"/>
<path d="M21.1484 20.9934L20.9433 21.1L20.9187 38.5808L20.9023 56.0699L20.6562 56.2176C20.2051 56.4801 20.1476 56.7426 20.1804 58.3668C20.2133 60.0812 20.2789 60.2781 20.8367 60.434C21.2387 60.5406 59.7605 60.5734 60.4824 60.4668C61.0074 60.3848 61.4668 60.1551 61.6472 59.8762C61.7785 59.6793 61.7949 59.4414 61.7949 58.0387C61.7949 56.5375 61.7867 56.4144 61.6308 56.2422C61.5406 56.1437 61.3848 56.0289 61.2863 55.9879L61.0976 55.9141V41.1812V26.4402L60.7285 26.4812C60.1707 26.5469 60.1133 26.6289 60.1133 27.4V28.0644L58.9812 29.1965L57.8574 30.3203L56.6926 29.1473L55.5277 27.9824L55.5031 27.2441L55.4785 26.5059L55.2078 26.4812C55.0519 26.4648 54.8469 26.5141 54.732 26.5879L54.5351 26.7109V41.3043V55.8976L44.1828 55.873C38.4816 55.8566 33.7894 55.8484 33.7402 55.8484C33.6992 55.8484 32.2637 55.8648 30.5574 55.8812L27.4648 55.9141V39.1551C27.4648 29.943 27.4648 22.0598 27.4648 21.6414V20.8867H27.2187C27.0793 20.8867 26.8578 20.9441 26.7265 21.0098C26.4887 21.1328 26.4804 21.1492 26.4804 21.7726V22.4043L25.3484 23.5363L24.2246 24.6601L23.0515 23.4871L21.8867 22.3223V21.6004V20.8867H21.6242C21.4765 20.8867 21.2633 20.9359 21.1484 20.9934ZM26.4804 25.2918V26.916L25.6601 26.0957L24.8398 25.2754L25.6355 24.4797C26.0785 24.0367 26.4476 23.6758 26.4558 23.6758C26.4722 23.6758 26.4804 24.4058 26.4804 25.2918ZM22.789 24.5371L23.5683 25.3164L22.7234 26.1613L21.8867 26.998V25.3738C21.8867 24.4879 21.9113 23.7578 21.9523 23.7578C21.9851 23.7578 22.3625 24.1105 22.789 24.5371ZM25.3156 27.0637L26.3984 28.1465L25.332 29.2129L24.2656 30.2793L23.1582 29.1719L22.0508 28.0644L23.0926 27.0226C23.6668 26.4402 24.159 25.9726 24.1836 25.9726C24.2082 25.9726 24.7168 26.4648 25.3156 27.0637ZM26.4804 30.8289V32.4941L25.6437 31.6574L24.7988 30.8125L25.6191 29.9922C26.0703 29.541 26.4476 29.1719 26.4558 29.1719C26.4722 29.1719 26.4804 29.9183 26.4804 30.8289ZM60.1133 30.8699V32.5762L59.2355 31.6984L58.3496 30.8125L59.1699 29.9922C59.6211 29.541 60.0148 29.1719 60.0476 29.1719C60.0887 29.1719 60.1133 29.9348 60.1133 30.8699ZM22.7234 31.8133L21.8867 32.6582V30.9766V29.2949L22.7234 30.1398L23.5683 30.9766L22.7234 31.8133ZM56.3562 31.8133L55.5195 32.6582V30.9766V29.2949L56.3562 30.1398L57.2012 30.9766L56.3562 31.8133ZM60.023 33.782C60.0558 33.8805 58.0707 35.8984 57.9394 35.8984C57.8902 35.8984 57.3406 35.3816 56.709 34.75L55.5605 33.6016L56.6187 32.5433L57.6769 31.4769L58.8336 32.5926C59.4734 33.1996 60.0066 33.741 60.023 33.782ZM25.25 32.6582L26.3574 33.7656L25.3074 34.8074L24.2656 35.8574L23.1418 34.7336L22.0097 33.6016L23.0351 32.5762C23.6012 32.0101 24.0769 31.5508 24.1015 31.5508C24.1262 31.5508 24.6429 32.0512 25.25 32.6582ZM60.1133 36.407V38.1543L59.2355 37.2766L58.3496 36.3906L59.2109 35.5293C59.6867 35.0535 60.0805 34.668 60.0887 34.668C60.1051 34.668 60.1133 35.4555 60.1133 36.407ZM26.4804 36.448V38.0723L25.6601 37.2519L24.8398 36.4316L25.6355 35.6359C26.0785 35.193 26.4476 34.832 26.4558 34.832C26.4722 34.832 26.4804 35.5621 26.4804 36.448ZM22.7234 37.3914L21.8867 38.2363V36.5547V34.873L22.7234 35.718L23.5683 36.5547L22.7234 37.3914ZM56.3972 37.5144L55.5195 38.4004V36.6367V34.873L56.3972 35.759L57.2832 36.6367L56.3972 37.5144ZM58.973 40.443L57.9148 41.5012L56.7172 40.3609L55.5277 39.2207L56.6105 38.1297L57.6933 37.0469L58.8582 38.2117L60.0312 39.3848L58.973 40.443ZM25.3566 40.4266L24.3066 41.4766L23.1582 40.3691L22.0097 39.2617L23.0762 38.1953L24.1426 37.1289L25.2664 38.2527L26.3984 39.3848L25.3566 40.4266ZM60.1133 42.0262V43.7324L59.2519 42.8711L58.3906 42.0098L59.2273 41.173C59.6949 40.7055 60.0805 40.3281 60.0887 40.3281C60.1051 40.3281 60.1133 41.091 60.1133 42.0262ZM26.464 42.8383L26.4394 43.6094L25.6355 42.8137L24.8234 42.0262L25.6355 41.2141L26.4394 40.4101L26.464 41.2305C26.4722 41.6898 26.4722 42.4117 26.464 42.8383ZM57.2422 42.1738C57.2422 42.1738 56.8566 42.5594 56.3808 43.0351L55.5195 43.8965V42.1738V40.4512L56.3808 41.3125C56.8566 41.7883 57.2422 42.1738 57.2422 42.1738ZM22.7644 41.3289C23.1828 41.7473 23.5273 42.1246 23.5273 42.1738C23.5273 42.2641 22.0426 43.7734 21.9523 43.7734C21.9113 43.7734 21.8867 43.0516 21.8867 42.1738C21.8867 41.2961 21.9113 40.5742 21.9441 40.5742C21.9769 40.5742 22.3461 40.9187 22.7644 41.3289ZM25.291 45.9883L24.2246 47.0547L23.1172 45.9473L22.0097 44.8398L23.0762 43.7734L24.1426 42.707L25.25 43.8144L26.3574 44.9219L25.291 45.9883ZM58.9238 43.8555L60.0723 45.0039L59.0058 46.0703L57.9394 47.1367L56.7746 45.9719L55.6015 44.7988L56.6433 43.757C57.2176 43.1746 57.7097 42.707 57.7344 42.707C57.759 42.707 58.2922 43.2238 58.9238 43.8555ZM60.1133 47.5633V49.3105L59.2355 48.4328L58.3496 47.5469L59.2109 46.6855C59.6867 46.2098 60.0805 45.8242 60.0887 45.8242C60.1051 45.8242 60.1133 46.6117 60.1133 47.5633ZM26.4804 47.6863V49.3105L25.6601 48.4902L24.8398 47.6699L25.6355 46.8742C26.0785 46.4312 26.4476 46.0703 26.4558 46.0703C26.4722 46.0703 26.4804 46.8004 26.4804 47.6863ZM22.789 46.9316L23.5683 47.7109L22.7234 48.5558L21.8867 49.3926V47.7683C21.8867 46.8824 21.9113 46.1523 21.9523 46.1523C21.9851 46.1523 22.3625 46.5051 22.789 46.9316ZM57.2422 47.834C57.2422 47.834 56.8566 48.2195 56.3808 48.6953L55.5195 49.5566V47.834V46.1113L56.3808 46.9726C56.8566 47.4484 57.2422 47.834 57.2422 47.834ZM58.8418 49.4336L59.9902 50.582L58.9238 51.6484L57.8574 52.7148L56.6844 51.55L55.5113 50.3851L56.5613 49.3351C57.1355 48.7609 57.6277 48.2851 57.6523 48.2851C57.6769 48.2851 58.2101 48.8019 58.8418 49.4336ZM25.3156 49.4582L26.3984 50.541L25.332 51.6074L24.2656 52.6738L23.1582 51.5664L22.0508 50.459L23.0926 49.4172C23.6668 48.8348 24.159 48.3672 24.1836 48.3672C24.2082 48.3672 24.7168 48.8594 25.3156 49.4582ZM60.1133 53.2644V54.9707L59.2355 54.093L58.3496 53.207L59.1699 52.3867C59.6211 51.9355 60.0148 51.5664 60.0476 51.5664C60.0887 51.5664 60.1133 52.3293 60.1133 53.2644ZM26.4804 53.2644V54.8887L25.6601 54.0684L24.8398 53.248L25.6355 52.4523C26.0785 52.0094 26.4476 51.6484 26.4558 51.6484C26.4722 51.6484 26.4804 52.3785 26.4804 53.2644ZM22.7234 54.2078L21.8867 55.0527V53.3711V51.6894L22.7234 52.5344L23.5683 53.3711L22.7234 54.2078ZM56.3562 54.2078L55.5195 55.0527V53.3711V51.6894L56.3562 52.5344L57.2012 53.3711L56.3562 54.2078ZM57.7672 55.8156C56.7418 55.8238 55.8887 55.8156 55.864 55.791C55.8312 55.7664 56.2332 55.3234 56.75 54.8066L57.6933 53.8633L58.6613 54.823L59.6211 55.791L57.7672 55.8156ZM25.9883 55.8566C25.9883 55.8976 25.7012 55.9059 25.3566 55.8812C25.0039 55.8566 24.6265 55.8402 24.5117 55.8484C24.1426 55.8648 23.3304 55.8566 23.1582 55.8402C23.0679 55.832 22.8137 55.8484 22.584 55.8812L22.1738 55.9305L23.1582 54.9379L24.1426 53.9453L25.0613 54.8641C25.5699 55.3726 25.9883 55.8156 25.9883 55.8566ZM23.4453 56.4062C23.2812 56.5129 23.1746 56.5129 23.2402 56.4062C23.2648 56.357 23.3551 56.3242 23.4289 56.3242C23.5519 56.3242 23.5519 56.3406 23.4453 56.4062ZM25.9801 56.357C25.9308 56.4062 23.5765 57.7762 23.3469 57.8828C23.2402 57.932 23.5355 57.6039 23.9949 57.1527L24.8316 56.3242H25.4222C25.7504 56.3242 25.9965 56.3406 25.9801 56.357ZM28.4902 56.4226C28.4 56.4719 27.6289 56.9148 26.7676 57.407C25.0941 58.375 25.0859 58.3668 26.5215 57.0707L27.3418 56.3324H27.998C28.5312 56.3324 28.6215 56.3488 28.4902 56.4226ZM31.1972 56.3898C31.0742 56.4965 27.7929 58.375 27.7929 58.334C27.7929 58.3176 28.2769 57.8582 28.8594 57.3168L29.934 56.3242H30.5984C30.9758 56.3242 31.2383 56.357 31.1972 56.3898ZM34.1914 56.5375C33.9863 56.6523 33.6254 56.8574 33.3957 56.9969C33.1578 57.1281 32.9609 57.2184 32.9609 57.2019C32.9609 57.1773 33.207 56.9723 33.5023 56.7426C33.8961 56.4473 34.1176 56.3242 34.3062 56.3242H34.5605L34.1914 56.5375ZM36.0371 56.4309C35.7746 56.6031 34.8804 57.0953 34.9379 57.0297C35.1265 56.8164 35.8894 56.3242 36.0289 56.3242C36.1929 56.3242 36.1929 56.3242 36.0371 56.4309ZM38.539 56.357C38.539 56.3816 35.914 57.9238 35.5449 58.1125C35.3972 58.1863 35.6023 57.9976 36.5703 57.1527L37.5137 56.3324L38.0304 56.3242C38.3094 56.3242 38.539 56.3406 38.539 56.357ZM40.4176 56.357C40.3437 56.4226 38.7687 57.3086 38.7277 57.3086C38.7031 57.3086 38.9574 57.0871 39.2855 56.8246C39.7531 56.4473 39.9582 56.3324 40.1715 56.3324C40.3273 56.3242 40.434 56.3406 40.4176 56.357ZM41.7137 56.6113C41.2051 56.9148 40.6883 57.1937 40.7539 57.1199C41.0164 56.841 41.8121 56.3242 41.9762 56.3242C42.1566 56.3242 42.1156 56.3734 41.7137 56.6113ZM44.8144 56.398C44.6832 56.5129 41.3937 58.3914 41.3691 58.3586C41.3527 58.3422 41.8285 57.8828 42.4191 57.3332L43.5019 56.3242H44.1992C44.5929 56.3242 44.8554 56.357 44.8144 56.398ZM46.332 56.4062C46.2664 56.4555 46.1351 56.5375 46.0449 56.5867C45.8808 56.6769 45.8808 56.6769 46.0367 56.4965C46.1269 56.4062 46.25 56.3242 46.3238 56.3242C46.4387 56.3242 46.4387 56.3406 46.332 56.4062ZM48.0137 56.3898C47.8742 56.5129 46.939 57.0133 47.0293 56.9148C47.2344 56.6851 47.784 56.3324 47.9316 56.3242C48.0219 56.3242 48.0547 56.3488 48.0137 56.3898ZM50.6715 56.357C50.6304 56.3898 47.4804 58.2109 47.3574 58.2684C47.3164 58.293 47.5707 58.0387 47.9316 57.7023C48.2926 57.3742 48.7765 56.9312 48.998 56.718L49.4082 56.3242H50.0562C50.4172 56.3242 50.6879 56.3406 50.6715 56.357ZM52.9355 56.3898C52.8863 56.4309 52.2301 56.8246 51.459 57.2594C49.9988 58.0961 49.9824 58.0715 51.2539 56.9887L52.0332 56.3242H52.5254C52.7879 56.3242 52.9765 56.357 52.9355 56.3898ZM54.4531 56.4144C54.3875 56.4555 54.2234 56.5539 54.084 56.6195L53.8379 56.7508L54.084 56.5375C54.2234 56.4226 54.3875 56.3324 54.4531 56.3324C54.5597 56.3242 54.5597 56.3324 54.4531 56.4144ZM57.2832 56.3898C57.234 56.4309 56.5367 56.841 55.7246 57.3086C54.9125 57.768 54.125 58.2273 53.9691 58.3176C53.5426 58.5801 53.7066 58.3914 54.8633 57.3168L55.9215 56.3242H56.6433C57.0371 56.3242 57.3242 56.357 57.2832 56.3898ZM59.2601 56.398C59.2355 56.4391 58.8336 56.6851 58.3742 56.9476C57.9066 57.2019 57.4472 57.4726 57.3488 57.5383C56.9222 57.809 57.2094 57.5301 57.9476 56.9476C58.5793 56.4391 58.7844 56.3242 59.014 56.3242C59.1781 56.3242 59.2847 56.357 59.2601 56.398ZM60.6055 56.6113C60.6055 56.6605 60.3676 56.8164 60.0887 56.9641C59.7277 57.1609 59.6539 57.1855 59.8262 57.0461C59.9574 56.9476 60.1625 56.7754 60.2773 56.6769C60.4824 56.4965 60.6301 56.4637 60.6055 56.6113ZM60.7941 57.809C60.8269 57.9402 60.7531 58.0305 60.4004 58.2601C60.1543 58.416 59.9328 58.5391 59.8918 58.5391C59.859 58.5391 60.0312 58.334 60.2773 58.0879C60.5234 57.8418 60.7285 57.6367 60.7367 57.6367C60.7449 57.6367 60.7695 57.7105 60.7941 57.809ZM21.9277 58.2191C21.7472 58.3996 21.5012 58.6293 21.3781 58.7195L21.1484 58.8754V58.6785C21.1484 58.5144 21.2469 58.416 21.6652 58.1781C21.9441 58.0223 22.1902 57.891 22.2148 57.8828C22.2312 57.8828 22.1 58.0305 21.9277 58.2191ZM39.6054 59.0312L38.498 60.0976H37.7597H37.0215L37.8418 59.6137C38.2929 59.3512 39.1051 58.8754 39.6465 58.5555C40.1879 58.2355 40.6472 57.973 40.6719 57.973C40.6965 57.973 40.2125 58.4488 39.6054 59.0312ZM52.0742 59.0312L50.9668 60.0894L50.1875 60.0976H49.4082L51.2539 59.0312C52.2711 58.4488 53.116 57.9648 53.1406 57.9648C53.1652 57.9648 52.6812 58.4488 52.0742 59.0312ZM26.9726 58.1535C26.907 58.2109 26.3984 58.6785 25.857 59.1871L24.8562 60.1059L24.1836 60.0812L23.5109 60.0566L25.2172 59.0559C26.8332 58.1207 27.2515 57.9074 26.9726 58.1535ZM24.2656 58.1699C24.2656 58.1863 23.798 58.6293 23.2238 59.1461C22.3051 59.9828 22.141 60.0976 21.8867 60.0976C21.5586 60.0976 21.3617 59.9992 21.4027 59.8598C21.4273 59.8023 22.0672 59.4004 22.8301 58.9492C24.3312 58.0797 24.2656 58.1125 24.2656 58.1699ZM46.332 58.2437C46.2664 58.3012 45.7742 58.7441 45.241 59.2281L44.2648 60.0976H43.6414C43.3051 60.0976 43.0508 60.073 43.0754 60.0484C43.1656 59.95 46.291 58.1453 46.373 58.1371C46.414 58.1289 46.3976 58.1781 46.332 58.2437ZM34.0191 58.4816C33.8961 58.5801 33.4285 58.9902 32.9773 59.384L32.1488 60.1059L31.6156 60.0812L31.0824 60.0566L32.6164 59.1789C33.4613 58.6867 34.1668 58.293 34.1914 58.293C34.216 58.3012 34.134 58.3832 34.0191 58.4816ZM48.4238 58.5226C48.3336 58.6129 47.8824 58.9984 47.423 59.3922L46.5863 60.1059L46.0941 60.0812L45.6019 60.0566L47.0539 59.2199C47.8496 58.7523 48.5222 58.375 48.5469 58.375C48.5633 58.375 48.514 58.4406 48.4238 58.5226ZM58.0953 59.2773L57.275 60.1059L56.6844 60.0812L56.0855 60.0566L57.4637 59.2609C58.2183 58.818 58.8582 58.457 58.8828 58.457C58.9074 58.457 58.5547 58.8262 58.0953 59.2773ZM54.4941 58.859C54.4449 58.8918 54.084 59.1871 53.6902 59.5152C53.0258 60.0484 52.9355 60.0976 52.5828 60.0976H52.1972L53.3047 59.4496C54.3219 58.859 54.6992 58.6703 54.4941 58.859ZM29.2695 59.1461C29.2695 59.1625 28.9906 59.384 28.6461 59.6383C28.2113 59.9746 27.9734 60.0976 27.8258 60.0812C27.6535 60.0648 27.7601 59.9746 28.4246 59.5891C29.2613 59.0969 29.2695 59.0969 29.2695 59.1461ZM35.1758 59.1461C35.1758 59.1625 34.8969 59.384 34.5605 59.6383C34.0929 59.9992 33.8961 60.1059 33.7238 60.0812C33.5269 60.0566 33.6008 59.9992 34.3144 59.5891C35.1594 59.1051 35.1758 59.0887 35.1758 59.1461ZM55.8476 59.2199C55.8476 59.2363 55.5933 59.4414 55.2816 59.6793C54.8633 59.991 54.65 60.1059 54.5023 60.0812C54.3219 60.0648 54.4121 59.991 55.0437 59.6301C55.8148 59.1871 55.8476 59.1789 55.8476 59.2199ZM36.7344 59.3019C36.7344 59.3184 36.4965 59.507 36.2012 59.7203C35.8812 59.9582 35.6023 60.0976 35.5039 60.0812C35.3726 60.0648 35.4957 59.9582 35.9715 59.6711C36.5621 59.3184 36.7344 59.2363 36.7344 59.3019ZM30.5 59.5234C29.9832 59.9254 29.6797 60.1059 29.5566 60.0812C29.4664 60.0648 29.6387 59.9254 30.016 59.7121C30.6804 59.3266 30.8199 59.2773 30.5 59.5234ZM42.5586 59.3922C42.5586 59.4906 41.6316 60.0976 41.4758 60.0976C41.3445 60.0976 41.4676 59.991 41.9023 59.7285C42.5586 59.343 42.5586 59.343 42.5586 59.3922ZM48.391 59.9008C48.2515 60.0156 48.0957 60.0976 48.0383 60.0812C47.989 60.0648 48.0711 59.9664 48.2269 59.8762C48.6125 59.6383 48.6945 59.6465 48.391 59.9008ZM60.7859 59.8926C60.7531 60.073 60.7121 60.0976 60.4086 60.0976L60.0723 60.0894L60.4004 59.8926C60.8105 59.6383 60.8351 59.6383 60.7859 59.8926ZM40.1879 59.9336C40.0074 60.0894 39.8515 60.1469 39.8515 60.0566C39.8515 60.0156 40.2699 59.7777 40.3437 59.7777C40.3683 59.7777 40.2945 59.8516 40.1879 59.9336ZM58.8418 60.0156C58.8172 60.0566 58.7515 60.0976 58.7105 60.0976C58.6613 60.0976 58.6531 60.0566 58.6777 60.0156C58.7023 59.9664 58.768 59.9336 58.809 59.9336C58.8582 59.9336 58.8664 59.9664 58.8418 60.0156Z" fill="black"/>
</g>
<defs>
<filter id="filter0_d_46_110" x="0.640015" y="0" width="80" height="80" filterUnits="userSpaceOnUse" color-interpolation-filters="sRGB">
<feFlood flood-opacity="0" result="BackgroundImageFix"/>
<feColorMatrix in="SourceAlpha" type="matrix" values="0 0 0 0 0 0 0 0 0 0 0 0 0 0 0 0 0 0 127 0" result="hardAlpha"/>
<feMorphology radius="5" operator="dilate" in="SourceAlpha" result="effect1_dropShadow_46_110"/>
<feOffset/>
<feComposite in2="hardAlpha" operator="out"/>
<feColorMatrix type="matrix" values="0 0 0 0 0.929412 0 0 0 0 0.388235 0 0 0 0 0.105882 0 0 0 0.2 0"/>
<feBlend mode="normal" in2="BackgroundImageFix" result="effect1_dropShadow_46_110"/>
<feBlend mode="normal" in="SourceGraphic" in2="effect1_dropShadow_46_110" result="shape"/>
</filter>
</defs>
</svg>
