<svg width="81" height="80" viewBox="0 0 81 80" fill="none" xmlns="http://www.w3.org/2000/svg">
<g filter="url(#filter0_d_46_74)">
<rect x="5.65002" y="5" width="70" height="70" rx="35" fill="white" fill-opacity="0.01" shape-rendering="crispEdges"/>
<path d="M28.6461 19.1805C28.5148 19.2871 26.5379 20.9195 24.2574 22.8227C21.5832 25.0539 20.0902 26.35 20.0574 26.473C20.0246 26.5797 20 27.9906 20 29.5984V32.527L20.1969 32.7566L20.3937 32.9863L22.9859 33.0109L25.5781 33.0355L25.5945 46.8168L25.6191 60.6063L25.8488 60.8031L26.0785 61H29.0727C31.066 61 32.1242 60.9672 32.2391 60.9098C32.641 60.6965 32.6328 60.8277 32.6328 52.2227V44.1836H34.5031H36.3816L36.5785 43.9703L36.7754 43.757L36.8 38.3922L36.8164 33.0273H43.7891H50.7617V34.4957V35.9641L50.5156 36.0625C50.2039 36.1938 49.7199 36.727 49.5559 37.1207C49.3508 37.5965 49.3918 38.3348 49.6379 38.827C49.8512 39.2371 50.2203 39.6145 50.573 39.7785C50.7535 39.8605 50.7617 39.8934 50.7617 41.0008V42.1328H46.1352C43.5922 42.1328 41.443 42.1574 41.3691 42.182C41.0574 42.3051 41 42.6332 41 44.2574C41 45.7832 41 45.816 41.1969 46.0457L41.3937 46.2754H51.5H61.6062L61.8031 46.0457C62 45.816 62 45.7832 62 44.2574C62 42.6332 61.9426 42.3051 61.6309 42.182C61.557 42.1574 59.4078 42.1328 56.8648 42.1328H52.2383V41.0008C52.2383 39.8934 52.2465 39.8605 52.427 39.7785C52.7797 39.6145 53.1488 39.2371 53.3621 38.827C53.6082 38.3348 53.6492 37.5965 53.4441 37.1207C53.2801 36.727 52.7961 36.1938 52.4844 36.0625L52.2383 35.9641V34.4957V33.0273H56.0527C60.2199 33.0273 60.3594 33.0109 60.5234 32.5762C60.5727 32.4449 60.6055 31.1652 60.6055 29.418V26.473L60.4086 26.2434L60.2117 26.0137L57.2422 25.9891L54.2645 25.9645L41.7301 22.4863C34.8312 20.5668 29.1219 19 29.0316 19C28.9496 19 28.7773 19.082 28.6461 19.1805ZM39.6465 23.3559C44.5191 24.7094 48.5961 25.8496 48.7109 25.8906C48.834 25.9316 45.5363 25.9563 40.6391 25.948L32.3539 25.9316L31.3859 23.5117C30.1801 20.5012 30.2621 20.7719 30.5492 20.8375C30.6805 20.8703 34.7738 22.0023 39.6465 23.3559ZM29.9504 23.6922C30.3852 24.7914 30.7625 25.7512 30.7953 25.825C30.8445 25.9645 30.7297 25.9727 29.1055 25.9727C27.4812 25.9727 27.3664 25.9645 27.4156 25.825C27.752 24.9309 29.0645 21.707 29.1055 21.707C29.1301 21.707 29.5156 22.6012 29.9504 23.6922ZM26.6199 24.0121L25.857 25.9316L24.2574 25.9563L22.666 25.9727L22.9121 25.7758C23.0516 25.6691 24.1016 24.7832 25.25 23.8152C26.3984 22.8473 27.35 22.068 27.3664 22.0762C27.3828 22.0844 27.0465 22.9621 26.6199 24.0121ZM24.5937 27.3918C24.5937 27.4 23.8719 28.1301 22.9941 29.0078L21.3945 30.6074V28.9832V27.3672H22.9941C23.8719 27.3672 24.5937 27.3754 24.5937 27.3918ZM28.6133 28.9668L27.0137 30.5664L26.9891 29.0734C26.9809 28.2531 26.9891 27.5313 27.0055 27.4738C27.0383 27.3918 27.4238 27.3672 28.6297 27.3672H30.2129L28.6133 28.9668ZM35.75 27.4328C35.75 27.4656 35.0527 28.1957 34.1914 29.0488L32.6328 30.6074V28.9832V27.3672H34.1914C35.0527 27.3672 35.75 27.3918 35.75 27.4328ZM41.3281 27.4328C41.3281 27.4656 40.6309 28.1957 39.7695 29.0488L38.2109 30.6074V28.9832V27.3672H39.7695C40.6309 27.3672 41.3281 27.3918 41.3281 27.4328ZM46.9883 27.3918C46.9883 27.4 46.2664 28.1301 45.3887 29.0078L43.7891 30.6074V28.9832V27.3672H45.3887C46.2664 27.3672 46.9883 27.3754 46.9883 27.3918ZM51.0078 28.9668L49.4082 30.5664L49.3836 29.0734C49.3754 28.2531 49.3836 27.5313 49.4 27.4738C49.4328 27.3918 49.8184 27.3672 51.0242 27.3672H52.6074L51.0078 28.9668ZM58.1445 27.4328C58.1445 27.4656 57.4473 28.1957 56.5859 29.0488L55.0273 30.6074V28.9832V27.3672H56.5859C57.4473 27.3672 58.1445 27.3918 58.1445 27.4328ZM25.5781 30.0332V31.6328H24.0195C23.1664 31.6328 22.4609 31.6082 22.4609 31.5754C22.4609 31.518 25.5043 28.4336 25.5535 28.4336C25.5699 28.4336 25.5781 29.1555 25.5781 30.0332ZM31.2055 31.5262C31.1727 31.6082 30.7871 31.6328 29.5812 31.6328H27.998L29.5977 30.0332L31.1973 28.4336L31.2219 29.9266C31.2301 30.7469 31.2219 31.4688 31.2055 31.5262ZM36.7836 31.5262C36.7508 31.6082 36.3652 31.6328 35.1594 31.6328H33.5762L35.1758 30.0332L36.7754 28.4336L36.8 29.9266C36.8082 30.7469 36.8 31.4688 36.7836 31.5262ZM42.3945 30.0332V31.6328H40.8359C39.9828 31.6328 39.2773 31.6082 39.2773 31.5754C39.2773 31.518 42.3207 28.4336 42.3699 28.4336C42.3863 28.4336 42.3945 29.1555 42.3945 30.0332ZM47.9727 30.0332V31.6328H46.4141C45.5609 31.6328 44.8555 31.6082 44.8555 31.5754C44.8555 31.518 47.8988 28.4336 47.948 28.4336C47.9645 28.4336 47.9727 29.1555 47.9727 30.0332ZM53.6 31.5262C53.5672 31.6082 53.1816 31.6328 51.9758 31.6328H50.3926L51.9922 30.0332L53.5918 28.4336L53.6164 29.9266C53.6246 30.7469 53.6164 31.4688 53.6 31.5262ZM59.2109 30.0332V31.6328H57.5949H55.9707L57.5703 30.0332C58.448 29.1555 59.1781 28.4336 59.1863 28.4336C59.2027 28.4336 59.2109 29.1555 59.2109 30.0332ZM28.3672 36.8418C28.3672 40.9105 28.3836 41.0992 28.7609 41.3043C28.8758 41.3617 30.0078 41.3945 32.1734 41.3945H35.4219V42.0918V42.7891H31.1973H26.9727V37.9082V33.0273H27.6699H28.3672V36.8418ZM35.4219 36.5137V40H34.5031H33.5926L34.134 39.434C34.577 38.9828 34.6836 38.8188 34.6836 38.6137C34.6836 38.2445 34.3719 37.9492 33.9781 37.9492C33.6992 37.9492 33.5844 38.0313 32.6328 38.9746L31.5992 40H31.1973H30.7953L32.0422 38.7449C33.3465 37.4324 33.4285 37.293 33.1988 36.8746C33.0758 36.6285 32.6492 36.4727 32.3867 36.5629C32.2719 36.6039 31.6566 37.1535 31.0332 37.7852C30.4016 38.4168 29.8602 38.9336 29.8273 38.9336C29.7863 38.9336 29.7617 37.6047 29.7617 35.9805V33.0273H32.5918H35.4219V36.5137ZM51.9512 37.416C52.3121 37.7688 52.2055 38.3348 51.7461 38.5234C51.459 38.6465 51.057 38.5234 50.9258 38.2691C50.6797 37.818 51.0078 37.2109 51.5 37.2109C51.6559 37.2109 51.8281 37.2848 51.9512 37.416ZM60.6055 44.2246V44.9219H51.5H42.3945V44.2246V43.5273H51.5H60.6055V44.2246ZM30.1719 44.2082C30.1719 44.2164 29.45 44.9465 28.5723 45.8242L26.9727 47.4238V45.7996V44.1836H28.5723C29.45 44.1836 30.1719 44.1918 30.1719 44.2082ZM31.2383 46.8086V48.3672H29.6223H27.998L29.5566 46.8086C30.4098 45.9473 31.1398 45.25 31.1727 45.25C31.2137 45.25 31.2383 45.9473 31.2383 46.8086ZM28.6133 51.3613L27.0137 52.9609L26.9891 51.468C26.9809 50.6477 26.9891 49.9258 27.0055 49.8684C27.0383 49.7863 27.4238 49.7617 28.6297 49.7617H30.2129L28.6133 51.3613ZM31.2055 53.9207C31.1727 54.0027 30.7871 54.0273 29.5812 54.0273H27.998L29.5977 52.4277L31.1973 50.8281L31.2219 52.3211C31.2301 53.1414 31.2219 53.8633 31.2055 53.9207ZM28.6543 56.9805C27.8012 57.8336 27.0711 58.5391 27.0383 58.5391C26.9973 58.5391 26.9727 57.8336 26.9727 56.9805V55.4219H28.5887H30.2129L28.6543 56.9805ZM31.2219 58.0223L31.1973 59.5645L29.5977 59.5891L27.998 59.6055L29.5566 58.0469C30.4098 57.1938 31.1398 56.4883 31.1809 56.4883C31.2137 56.4883 31.2301 57.1773 31.2219 58.0223Z" fill="black"/>
<path d="M41.3445 51.2957C41.2871 51.3203 41.1887 51.4434 41.123 51.5664C41.0164 51.7715 41 52.477 41 56.1602V60.5242L41.2379 60.7621L41.4758 61H51.5H61.5242L61.7621 60.7621L62 60.5242V56.1602C62 51.5664 61.9918 51.427 61.6309 51.2875C61.4668 51.2301 41.5004 51.2301 41.3445 51.2957ZM60.6055 56.1191V59.6055H51.5H42.3945V56.1191V52.6328H51.5H60.6055V56.1191Z" fill="black"/>
<path d="M44.0516 54.1913C43.7891 54.4374 43.7727 54.5769 43.8055 56.2667C43.8383 58.3011 43.6988 58.1617 45.7332 58.1945C47.423 58.2273 47.5625 58.2109 47.8086 57.9484C47.9644 57.7843 47.9727 57.6613 47.9727 56.1027C47.9727 53.8632 48.1367 54.0273 45.8973 54.0273C44.3387 54.0273 44.2156 54.0355 44.0516 54.1913ZM46.5781 56.1191V56.8163H45.8809H45.1836V56.1191V55.4218H45.8809H46.5781V56.1191Z" fill="black"/>
<path d="M49.6051 54.2406C49.4164 54.4457 49.4082 54.4949 49.3836 55.8977C49.3508 57.5547 49.4082 57.8992 49.7774 58.0879C50.1219 58.2684 52.8781 58.2684 53.2227 58.0879C53.5918 57.8992 53.6492 57.5547 53.6164 55.8977C53.5918 54.4949 53.5836 54.4457 53.3949 54.2406L53.1981 54.0274H51.5H49.802L49.6051 54.2406ZM52.2219 56.0946L52.1973 56.7754H51.5H50.8027L50.7781 56.0946L50.7535 55.4219H51.5H52.2465L52.2219 56.0946Z" fill="black"/>
<path d="M55.2324 54.2324C55.0273 54.4292 55.0273 54.4374 55.0273 56.1027C55.0273 57.6613 55.0355 57.7843 55.1914 57.9484C55.4375 58.2109 55.577 58.2273 57.2668 58.1945C59.3012 58.1617 59.1617 58.3011 59.1945 56.2667C59.2273 54.5769 59.2109 54.4374 58.9484 54.1913C58.7844 54.0355 58.6613 54.0273 57.1027 54.0273C55.4375 54.0273 55.4293 54.0273 55.2324 54.2324ZM57.8164 56.1191V56.8163H57.1191H56.4219V56.1191V55.4218H57.1191H57.8164V56.1191Z" fill="black"/>
</g>
<defs>
<filter id="filter0_d_46_74" x="0.650024" y="0" width="80" height="80" filterUnits="userSpaceOnUse" color-interpolation-filters="sRGB">
<feFlood flood-opacity="0" result="BackgroundImageFix"/>
<feColorMatrix in="SourceAlpha" type="matrix" values="0 0 0 0 0 0 0 0 0 0 0 0 0 0 0 0 0 0 127 0" result="hardAlpha"/>
<feMorphology radius="5" operator="dilate" in="SourceAlpha" result="effect1_dropShadow_46_74"/>
<feOffset/>
<feComposite in2="hardAlpha" operator="out"/>
<feColorMatrix type="matrix" values="0 0 0 0 0.929412 0 0 0 0 0.388235 0 0 0 0 0.105882 0 0 0 0.2 0"/>
<feBlend mode="normal" in2="BackgroundImageFix" result="effect1_dropShadow_46_74"/>
<feBlend mode="normal" in="SourceGraphic" in2="effect1_dropShadow_46_74" result="shape"/>
</filter>
</defs>
</svg>
