<svg width="46" height="46" viewBox="0 0 46 46" fill="none" xmlns="http://www.w3.org/2000/svg">
<g clip-path="url(#clip0_49_150)">
<path fill-rule="evenodd" clip-rule="evenodd" d="M22.3321 6.32999C18.7503 18.6126 12.8585 33.2313 8.88692 40.3036C8.76096 40.5249 8.58464 40.7135 8.37223 40.854C8.15983 40.9945 7.91732 41.083 7.66434 41.1124L2.35168 41.777C2.07653 41.8122 1.79695 41.7771 1.53908 41.6749C1.28121 41.5727 1.05348 41.4067 0.877187 41.1926C0.700894 40.9784 0.5818 40.723 0.531045 40.4503C0.48029 40.1776 0.499532 39.8965 0.586972 39.6333C3.58686 30.5582 7.08867 16.8276 8.75371 6.62758C8.81084 6.27087 8.98468 5.94319 9.24799 5.69586C9.51131 5.44854 9.84923 5.29555 10.2088 5.26085L20.5922 4.2212C20.861 4.19492 21.1321 4.2351 21.3816 4.33821C21.6312 4.44131 21.8516 4.60417 22.0235 4.81247C22.1953 5.02076 22.3134 5.2681 22.3672 5.53272C22.421 5.79734 22.4089 6.07113 22.3321 6.32999ZM45.4322 6.32999C41.8505 18.6127 35.9586 33.2315 31.9861 40.3037C31.8602 40.525 31.6839 40.7136 31.4715 40.8541C31.2591 40.9946 31.0166 41.0831 30.7637 41.1125L25.4854 41.7732C25.2088 41.8086 24.9277 41.773 24.6687 41.6695C24.4097 41.5661 24.1814 41.3984 24.0052 41.1821C23.8291 40.9659 23.711 40.7084 23.6621 40.4338C23.6132 40.1593 23.6351 39.8768 23.7258 39.613C26.8182 30.538 30.1986 16.8208 31.8539 6.62889C31.9108 6.27193 32.0846 5.94396 32.348 5.69642C32.6114 5.44888 32.9495 5.29576 33.3093 5.26108L43.6914 4.22155C43.9602 4.19513 44.2314 4.23519 44.4811 4.3382C44.7307 4.44121 44.9512 4.60402 45.1232 4.81229C45.2952 5.02056 45.4133 5.26791 45.4672 5.53257C45.5211 5.79722 45.5091 6.07106 45.4322 6.32999Z" fill="#FAFAFA"/>
</g>
<defs>
<clipPath id="clip0_49_150">
<rect width="45" height="45" fill="white" transform="translate(0.5 0.5)"/>
</clipPath>
</defs>
</svg>
