<svg width="86" height="86" viewBox="0 0 86 86" fill="none" xmlns="http://www.w3.org/2000/svg">
<rect y="1.11914" width="84.5617" height="84.5617" rx="25.3685" transform="rotate(-0.758635 0 1.11914)" fill="url(#paint0_linear_129_406)"/>
<g opacity="0.25" filter="url(#filter0_f_129_406)">
<rect x="13.2988" y="43.2275" width="57.6054" height="36.0033" rx="18.0017" transform="rotate(-0.758635 13.2988 43.2275)" fill="url(#paint1_linear_129_406)"/>
</g>
<rect x="11.1387" y="11.9648" width="62.4058" height="62.4058" rx="25.3685" transform="rotate(-0.758635 11.1387 11.9648)" fill="url(#paint2_linear_129_406)"/>
<g filter="url(#filter1_i_129_406)">
<path d="M27.9724 40.9744C27.9724 40.9744 42.8431 34.1424 48.0001 31.7377C49.9765 30.7771 56.6811 27.6977 56.6811 27.6977C56.6811 27.6977 59.7766 26.3485 59.5592 29.5287C59.49 30.838 58.859 35.4255 58.2329 40.3868C57.288 47.4084 56.2654 55.085 56.2654 55.085C56.2654 55.085 56.121 57.2364 54.656 57.6296C53.1911 58.0228 50.7477 56.3731 50.3105 56.005C49.9608 55.7293 43.7662 51.6059 41.4909 49.58C40.8782 49.0275 40.1716 47.9154 41.5377 46.5889C44.6097 43.4643 48.2769 39.5842 50.4928 37.1251C51.5156 35.99 52.5185 33.3601 48.2373 36.5941C42.159 41.2539 36.1633 45.6321 36.1633 45.6321C36.1633 45.6321 34.7922 46.5848 32.1871 45.7782C29.5819 44.9717 26.5408 43.8905 26.5408 43.8905C26.5408 43.8905 24.4472 42.5164 27.9724 40.9744Z" fill="white"/>
</g>
<defs>
<filter id="filter0_f_129_406" x="8.91809" y="38.0841" width="66.8377" height="45.5242" filterUnits="userSpaceOnUse" color-interpolation-filters="sRGB">
<feFlood flood-opacity="0" result="BackgroundImageFix"/>
<feBlend mode="normal" in="SourceGraphic" in2="BackgroundImageFix" result="shape"/>
<feGaussianBlur stdDeviation="2.30853" result="effect1_foregroundBlur_129_406"/>
</filter>
<filter id="filter1_i_129_406" x="23.1318" y="23.1426" width="38.5537" height="38.9765" filterUnits="userSpaceOnUse" color-interpolation-filters="sRGB">
<feFlood flood-opacity="0" result="BackgroundImageFix"/>
<feBlend mode="normal" in="SourceGraphic" in2="BackgroundImageFix" result="shape"/>
<feColorMatrix in="SourceAlpha" type="matrix" values="0 0 0 0 0 0 0 0 0 0 0 0 0 0 0 0 0 0 127 0" result="hardAlpha"/>
<feOffset dy="0.422809"/>
<feGaussianBlur stdDeviation="1.05702"/>
<feComposite in2="hardAlpha" operator="arithmetic" k2="-1" k3="1"/>
<feColorMatrix type="matrix" values="0 0 0 0 0 0 0 0 0 0 0 0 0 0 0 0 0 0 0.1 0"/>
<feBlend mode="normal" in2="shape" result="effect1_innerShadow_129_406"/>
</filter>
<linearGradient id="paint0_linear_129_406" x1="7.10835" y1="6.65812" x2="69.8834" y2="85.6808" gradientUnits="userSpaceOnUse">
<stop stop-color="#FBFBFC"/>
<stop offset="1" stop-color="#DBDDE8"/>
</linearGradient>
<linearGradient id="paint1_linear_129_406" x1="18.3725" y1="45.9107" x2="44.4503" y2="91.0273" gradientUnits="userSpaceOnUse">
<stop stop-color="#0088CC"/>
<stop offset="1" stop-color="#0083C5"/>
</linearGradient>
<linearGradient id="paint2_linear_129_406" x1="16.6352" y1="16.6157" x2="68.6406" y2="72.8493" gradientUnits="userSpaceOnUse">
<stop stop-color="#0088CC"/>
<stop offset="1" stop-color="#0083C5"/>
</linearGradient>
</defs>
</svg>
