<svg width="39" height="39" viewBox="0 0 39 39" fill="none" xmlns="http://www.w3.org/2000/svg">
<g clip-path="url(#clip0_129_920)" filter="url(#filter0_i_129_920)">
<path d="M0.637619 38.6988L3.23086 28.5211C0.978862 24.5996 0.218955 19.9987 1.09059 15.5628C1.96222 11.1269 4.40692 7.15352 7.97608 4.37177C11.5452 1.59001 15.9995 0.186486 20.5214 0.418736C25.0433 0.650985 29.3296 2.50343 32.5937 5.63615C35.8578 8.76886 37.8809 12.9717 38.2915 17.4735C38.7022 21.9752 37.473 26.4739 34.8294 30.144C32.1859 33.8141 28.3053 36.4095 23.8999 37.4538C19.4944 38.4982 14.8596 37.9214 10.8458 35.8295L0.637619 38.6988ZM11.2895 32.0279L11.928 32.3947C14.8373 34.0646 18.2183 34.7269 21.544 34.2782C24.8698 33.8295 27.9535 32.2951 30.3146 29.914C32.6758 27.533 34.1817 24.4392 34.5977 21.1146C35.0137 17.79 34.3164 14.4215 32.6146 11.5339C30.9127 8.64636 28.3019 6.40197 25.1889 5.15052C22.0759 3.89907 18.6356 3.71086 15.4042 4.61521C12.1727 5.51955 9.33165 7.46566 7.32369 10.1503C5.31573 12.8349 4.25366 16.1072 4.30301 19.4572C4.33708 22.235 5.14264 24.9488 6.63004 27.2966L7.03601 27.9453L5.58612 33.626L11.2895 32.0279Z" fill="black"/>
<path fill-rule="evenodd" clip-rule="evenodd" d="M26.5336 21.7674C26.1583 21.4732 25.7206 21.2685 25.254 21.1687C24.7873 21.069 24.3041 21.0769 23.841 21.1918C23.1468 21.4905 22.7103 22.59 22.2665 23.1427C22.1731 23.275 22.0346 23.3688 21.8769 23.4064C21.7192 23.4441 21.5532 23.423 21.41 23.3471C18.8414 22.3817 16.6752 20.5777 15.2632 18.2281C15.1435 18.0819 15.0853 17.895 15.1008 17.7068C15.1164 17.5186 15.2045 17.3438 15.3465 17.2191C15.843 16.7153 16.2042 16.0946 16.3967 15.4145C16.4315 14.6667 16.2502 13.9247 15.8743 13.277C15.5783 12.3658 15.0272 11.5583 14.2862 10.9498C13.9059 10.7851 13.4861 10.7337 13.0772 10.8019C12.6684 10.8701 12.2881 11.055 11.9821 11.3341C11.4508 11.8042 11.0318 12.3873 10.756 13.0404C10.4803 13.6936 10.3548 14.4001 10.3888 15.1081C10.3958 15.5058 10.4515 15.9012 10.5548 16.2853C10.8164 17.2082 11.2116 18.088 11.7278 18.8968C12.1008 19.5167 12.5067 20.1162 12.9438 20.6928C14.3646 22.5868 16.1403 24.1874 18.1722 25.4058C19.192 26.025 20.2797 26.5251 21.414 26.8961C22.594 27.4114 23.8918 27.598 25.1695 27.4361C25.8971 27.3163 26.5841 27.0198 27.17 26.5726C27.7559 26.1255 28.2227 25.5414 28.5295 24.8719C28.7095 24.4675 28.7598 24.0174 28.6735 23.5833C28.4684 22.696 27.2695 22.1865 26.5336 21.7674Z" fill="black"/>
</g>
<defs>
<filter id="filter0_i_129_920" x="0.132812" y="0.144531" width="38.5537" height="38.9765" filterUnits="userSpaceOnUse" color-interpolation-filters="sRGB">
<feFlood flood-opacity="0" result="BackgroundImageFix"/>
<feBlend mode="normal" in="SourceGraphic" in2="BackgroundImageFix" result="shape"/>
<feColorMatrix in="SourceAlpha" type="matrix" values="0 0 0 0 0 0 0 0 0 0 0 0 0 0 0 0 0 0 127 0" result="hardAlpha"/>
<feOffset dy="0.422809"/>
<feGaussianBlur stdDeviation="1.05702"/>
<feComposite in2="hardAlpha" operator="arithmetic" k2="-1" k3="1"/>
<feColorMatrix type="matrix" values="0 0 0 0 0 0 0 0 0 0 0 0 0 0 0 0 0 0 0.1 0"/>
<feBlend mode="normal" in2="shape" result="effect1_innerShadow_129_920"/>
</filter>
<clipPath id="clip0_129_920">
<rect width="38.0528" height="38.0528" fill="white" transform="translate(0.132812 0.648438) rotate(-0.758635)"/>
</clipPath>
</defs>
</svg>
